# xmcd
#
# Track frame offsets:
#	150
#	20475
#	42638
#	77776
#	95289
#	115680
#	135621
#	154653
#	174519
#	205007
#	221179
#	253429
#	281198
#	300436
#
# Disc length: 4219 seconds
#
# Revision: 1
# Processed by: cddbd v1.5.2PL0 Copyright (c) Steve Scherf et al.
# Submitted via: EZCDAudioConverter 5.5.0.1
#
DISCID=c710790e
DTITLE=Various Artist - The Many Faces Of  Eric Clapton CD 2
DYEAR=2016
DGENRE=Blues
TTITLE0=Ann Peebles - Tears In Heaven
TTITLE1=Buddy Guy - Strange Brew
TTITLE2=Eric Gales and Derek Trucks - Layla
TTITLE3=Bo Diddley - Before You Accuse Me
TTITLE4=Koko Taylor - Blues Power
TTITLE5=Otis Clay - Wonderful Tonight
TTITLE6=Joe Louis Walker feat. James Cotton - Roll It Over
TTITLE7=Pinetop Perkins feat. Bob Margolin - Too Bad
TTITLE8=Otis Rush - Old Love
TTITLE9=Honeyboy Edwards feat. James Cotton - Crossroads
TTITLE10=Jack Bruce - Sunshine Of Your Love
TTITLE11=Jack Bruce feat. Gary Moore - White Room
TTITLE12=Jack Bruce feat. Clem Clemson - Sitting On Top of The World
TTITLE13=Jack Bruce and HR Bigband - Desert Cities Of The Heart
EXTD=
EXTT0=
EXTT1=
EXTT2=
EXTT3=
EXTT4=
EXTT5=
EXTT6=
EXTT7=
EXTT8=
EXTT9=
EXTT10=
EXTT11=
EXTT12=
EXTT13=
PLAYORDER=
